<?xml version="1.0" encoding="UTF-8"?>
<!DOCTYPE svg PUBLIC "-//W3C//DTD SVG 1.1//EN" "http://www.w3.org/Graphics/SVG/1.1/DTD/svg11.dtd">
<svg version="1.1" xmlns="http://www.w3.org/2000/svg" xmlns:xlink="http://www.w3.org/1999/xlink" x="0" y="0" width="300" height="100" viewBox="0, 0, 300, 100">
  <g id="Layer_1">
    <path d="M50.025,10.374 C43.576,8.95 38.219,8.072 33.768,7.569 C33.823,9.301 33.619,11.104 33.345,13.009 L33.345,31.369 C33.773,32.958 34.347,34.612 35.115,36.342 C36.558,41.076 36.601,45.267 37.671,49.474 C38.057,50.991 38.573,52.509 39.34,54.056 C42.678,60.781 48.274,65.735 52.875,68.809 C55.009,70.236 57.447,71.63 59.095,72.376 C62.578,73.946 64.972,73.594 65.738,73.531 C65.738,73.514 66.001,73.514 66.001,73.531 C66.765,73.594 69.162,73.946 72.646,72.376 C74.293,71.63 76.641,70.093 78.865,68.809 C82.798,66.536 88.872,61.42 92.398,54.056 C93.141,52.504 93.649,50.986 94.031,49.474 C94.622,47.136 94.913,44.811 95.299,42.397 L95.299,41.933 C86.319,21.924 68.885,14.538 50.025,10.374 z" fill="#6ECDB2"/>
    <path d="M68.584,79.683 C64.965,81.283 53.72,86.061 44.051,87.988 C44.021,88.09 43.99,88.193 43.959,88.284 C43.889,88.21 43.446,88.261 43.024,88.184 C40.843,88.576 38.76,88.81 36.887,88.81 C34.169,88.81 31.891,88.322 30.392,87.121 C30.392,87.121 28.539,83.418 29.002,79.597 C29.466,75.777 27.845,75.315 27.845,75.315 C27.845,75.315 22.983,75.315 25.992,70.915 C25.992,70.915 26.194,70.953 26.387,70.953 C26.868,70.953 27.289,70.717 24.337,69.063 C20.204,66.747 22.056,65.127 22.056,65.127 C22.056,65.127 25.067,61.654 24.371,60.034 C23.677,58.413 15.805,56.329 16.731,53.55 C17.657,50.772 25.066,43.362 26.687,37.112 C26.687,37.112 26.294,37.181 25.706,37.181 C24.432,37.181 22.239,36.855 21.131,34.796 C21.131,34.796 22.293,35.862 23.742,35.862 C24.531,35.862 25.407,35.545 26.224,34.564 L24.14,30.879 C24.14,30.879 22.751,26.692 25.529,13.958 C25.529,13.958 25.057,12.243 24.706,9.526 C9.966,17.801 0,33.572 0,51.679 C0,78.367 21.634,100 48.321,100 C56.84,100 64.842,97.791 71.791,93.921 C71.738,92.299 71.598,90.54 71.339,88.634 C70.978,85.151 69.038,82.422 68.584,79.683 z" fill="#BAD8EB"/>
    <path d="M66.502,61.1 C58.433,61.1 60.14,58.062 56.882,56.304 C57.294,55.699 58.195,55.576 59.367,55.659 C58.444,55.634 57.739,55.779 57.396,56.272 C60.482,57.889 58.865,60.684 66.509,60.684 C74.593,60.684 72.977,57.889 75.917,56.272 C75.377,55.513 74.436,55.354 73.282,55.451 C74.667,55.279 75.802,55.399 76.43,56.304 C73.327,58.062 75.034,61.1 66.502,61.1 z" fill="#BAD8EB"/>
    <path d="M72.677,40.319 C74.064,40.107 74.703,42.238 73.956,42.345 C73.211,42.451 70.547,43.73 70.013,43.304 C69.481,42.877 71.291,40.533 72.677,40.319 z" fill="#BAD8EB"/>
    <path d="M68.414,19.114 C69.267,18.795 67.455,24.655 69.587,30.73 C71.153,35.192 71.185,35.844 69.801,35.417 C68.414,34.992 67.562,19.434 68.414,19.114 z" fill="#BAD8EB"/>
    <path d="M60.981,40.319 C62.368,40.532 64.179,42.877 63.647,43.304 C63.115,43.73 60.45,42.451 59.703,42.345 C58.957,42.239 59.597,40.107 60.981,40.319 z" fill="#BAD8EB"/>
    <path d="M63.709,50.683 C64.447,50.672 65.578,51.23 66.503,51.23 C67.382,51.23 68.474,50.694 69.178,50.694 C71.983,50.694 73.173,50.71 75.808,52.826 C75.752,52.805 74.871,53.62 72.947,54.336 C74.539,53.711 75.278,53.053 75.329,53.071 C72.829,51.124 71.703,51.11 69.046,51.11 C68.38,51.11 67.344,51.602 66.509,51.602 C65.634,51.602 64.563,51.091 63.864,51.099 C61.952,51.123 59.306,51.123 57.69,53.366 C57.638,53.347 58.374,53.917 59.979,54.461 C58.026,53.836 57.135,53.124 57.193,53.147 C58.899,50.71 61.691,50.71 63.709,50.683 z" fill="#BAD8EB"/>
    <path d="M57.721,54.065 C60.649,54.995 67.466,57.041 75.289,54.065 C79.025,52.644 77.408,56.663 75.289,55.242 C74.368,54.623 70.443,56.052 66.508,56.052 C62.348,56.052 59.637,54.508 57.418,55.831 C55.599,56.467 54.792,53.134 57.721,54.065 z" fill="#BAD8EB"/>
    <path d="M24.14,30.879 L26.224,34.564 C25.407,35.545 24.532,35.862 23.742,35.862 C22.293,35.862 21.131,34.796 21.131,34.796 C22.239,36.855 24.432,37.181 25.706,37.181 C26.294,37.181 26.687,37.112 26.687,37.112 C25.067,43.363 17.657,50.772 16.731,53.55 C15.805,56.329 23.677,58.413 24.371,60.034 C25.067,61.653 22.056,65.127 22.056,65.127 C22.056,65.127 20.204,66.747 24.337,69.063 C27.289,70.717 26.868,70.953 26.387,70.953 C26.195,70.953 25.992,70.915 25.992,70.915 C22.983,75.315 27.845,75.315 27.845,75.315 C27.845,75.315 29.466,75.778 29.002,79.597 C28.539,83.418 30.392,87.121 30.392,87.121 C31.891,88.321 34.169,88.81 36.887,88.81 C38.76,88.81 40.843,88.576 43.024,88.184 C42.475,88.083 41.963,87.764 42.36,86.665 C43.8,82.677 43.798,64.916 40.282,58.373 C40.282,58.419 40.436,58.571 40.652,58.767 C38.938,56.287 37.598,53.595 36.56,50.567 C35.285,46.847 34.717,42.251 34.019,38.059 C33.171,32.972 31.783,28.096 31.522,22.098 C31.321,17.422 32.756,13.357 32.93,7.477 C31.707,7.348 30.555,7.249 29.472,7.175 C27.833,7.869 26.247,8.662 24.706,9.526 C25.057,12.244 25.529,13.958 25.529,13.958 C22.752,26.692 24.14,30.879 24.14,30.879 z" fill="#004987"/>
    <path d="M40.282,58.373 C43.797,64.915 43.799,82.676 42.36,86.664 C41.963,87.763 42.475,88.082 43.024,88.183 C43.364,88.122 43.707,88.056 44.051,87.988 C45.453,83.313 44.629,67.981 42.498,61.184 C41.839,60.398 41.224,59.594 40.652,58.767 C40.436,58.57 40.282,58.419 40.282,58.373 z" fill="#FFFFFF"/>
    <path d="M91.399,58.416 C91.412,58.397 91.42,58.382 91.42,58.373 C91.412,58.386 91.406,58.402 91.399,58.416 z" fill="#00AEEF"/>
    <path d="M96.328,46.233 C96.217,45.243 96.066,44.266 95.896,43.296 C95.72,42.875 95.538,42.461 95.355,42.051 C94.684,46.158 94.345,49.991 92.399,54.056 C88.874,61.42 82.8,66.536 78.866,68.809 C76.642,70.093 74.294,71.63 72.647,72.376 C69.164,73.946 66.766,73.594 66.002,73.531 C66.002,73.514 65.739,73.514 65.739,73.531 C64.974,73.594 62.579,73.946 59.096,72.376 C57.448,71.63 55.01,70.236 52.876,68.809 L42.498,61.183 C45.19,64.398 48.624,67.294 52.994,70.186 C54.586,71.079 57.516,73.694 59.223,74.173 C61.359,74.776 63.578,75.034 65.87,74.919 C68.163,75.033 70.383,74.776 72.518,74.173 C74.224,73.694 77.156,71.079 78.746,70.186 C83.082,67.316 86.498,64.444 89.181,61.262 C87.758,65.863 86.925,74.268 86.958,80.696 C87.474,80.012 87.972,79.31 88.452,78.597 C88.327,71.737 89.118,62.708 91.399,58.416 C91.36,58.471 91.267,58.562 91.15,58.673 C92.833,56.218 94.155,53.556 95.181,50.567 C95.644,49.217 96.011,47.752 96.328,46.233 z" fill="#004987"/>
    <path d="M70.013,43.304 C70.547,43.73 73.21,42.451 73.956,42.345 C74.703,42.238 74.064,40.107 72.677,40.319 C71.291,40.533 69.481,42.877 70.013,43.304 z" fill="#004987"/>
    <path d="M59.703,42.345 C60.449,42.451 63.115,43.73 63.647,43.304 C64.18,42.877 62.368,40.533 60.981,40.319 C59.597,40.107 58.957,42.239 59.703,42.345 z" fill="#004987"/>
    <path d="M69.801,35.418 C71.185,35.844 71.152,35.192 69.587,30.73 C67.455,24.655 69.267,18.795 68.414,19.114 C67.562,19.434 68.414,34.992 69.801,35.418 z" fill="#004987"/>
    <path d="M73.282,55.451 C74.436,55.353 75.376,55.513 75.917,56.271 C72.977,57.888 74.594,60.683 66.509,60.683 C58.865,60.683 60.482,57.888 57.396,56.271 C57.739,55.779 58.444,55.634 59.367,55.659 C58.195,55.576 57.294,55.698 56.882,56.303 C60.14,58.061 58.433,61.099 66.502,61.099 C75.034,61.099 73.327,58.061 76.43,56.303 C75.802,55.399 74.667,55.279 73.282,55.451 z" fill="#004987"/>
    <path d="M59.979,54.462 C58.373,53.918 57.638,53.347 57.69,53.367 C59.306,51.124 61.952,51.124 63.863,51.1 C64.563,51.091 65.633,51.602 66.508,51.602 C67.343,51.602 68.379,51.111 69.046,51.111 C71.702,51.111 72.829,51.124 75.328,53.072 C75.277,53.053 74.539,53.711 72.946,54.337 C74.871,53.621 75.751,52.805 75.808,52.827 C73.172,50.71 71.982,50.695 69.178,50.695 C68.473,50.695 67.381,51.231 66.502,51.231 C65.578,51.231 64.447,50.672 63.708,50.683 C61.691,50.711 58.899,50.711 57.193,53.149 C57.135,53.125 58.025,53.836 59.979,54.462 z" fill="#004987"/>
    <path d="M57.418,55.83 C59.637,54.507 62.348,56.051 66.508,56.051 C70.443,56.051 74.367,54.623 75.289,55.241 C77.408,56.662 79.025,52.644 75.289,54.064 C67.466,57.04 60.649,54.994 57.721,54.064 C54.792,53.134 55.599,56.467 57.418,55.83 z" fill="#004987"/>
    <g>
      <path d="M129.559,55.988 C129.559,63.699 124.636,71.366 114.79,71.366 C113.832,71.366 112.133,71.323 111,71.235 L111,40.741 C112.133,40.653 113.832,40.566 114.79,40.566 C124.636,40.566 129.559,48.234 129.559,55.988 z M128.252,55.988 C128.252,48.931 123.765,41.873 114.79,41.873 C114.181,41.873 113.004,41.917 112.307,41.96 L112.307,70.016 C113.048,70.059 114.181,70.059 114.79,70.059 C123.765,70.059 128.252,63.045 128.252,55.988 z" fill="#000000"/>
      <path d="M143.497,48.756 C140.839,48.756 138.008,49.715 136.134,51.414 L136.134,71.236 L134.827,71.236 L134.827,47.885 L136.134,47.885 L136.134,49.802 C138.182,48.277 140.926,47.449 143.497,47.449 L143.497,48.756 z" fill="#000000"/>
      <path d="M146.342,69.914 C146.342,68.974 146.977,68.313 147.867,68.313 C148.756,68.313 149.367,68.975 149.367,69.914 C149.367,70.83 148.782,71.515 147.842,71.515 C146.952,71.515 146.342,70.83 146.342,69.914 z" fill="#004987"/>
      <path d="M171.125,40 L182.8,71.018 L181.58,71.454 L178.399,63.003 L163.849,63.003 L160.669,71.454 L159.449,71.018 L171.125,40 z M164.329,61.695 L177.878,61.695 L171.125,43.703 L164.329,61.695 z" fill="#000000"/>
      <path d="M189.114,47.885 L189.114,49.802 C191.162,48.277 193.906,47.449 196.477,47.449 C200.354,47.449 204.057,49.41 205.495,53.287 C205.756,53.984 206.017,54.725 206.017,56.336 L206.017,71.235 L204.71,71.235 L204.71,56.336 C204.71,51.37 200.398,48.756 196.477,48.756 C193.819,48.756 190.988,49.715 189.114,51.414 L189.114,71.236 L187.807,71.236 L187.807,47.885 L189.114,47.885 z" fill="#000000"/>
      <path d="M219.694,49.192 L212.811,49.192 L212.811,63.045 C212.811,67.794 215.729,69.972 219.476,69.972 C219.737,69.972 220.086,69.972 220.478,69.929 L220.652,71.235 C220.26,71.279 219.824,71.279 219.476,71.279 C215.032,71.279 211.503,68.665 211.503,63.045 L211.503,49.192 L209.543,49.192 L209.543,47.885 L211.503,47.885 L211.503,40.304 L212.811,40.304 L212.811,47.884 L219.694,47.884 L219.694,49.192 z" fill="#000000"/>
      <path d="M224.136,40.741 L226.314,40.741 L226.314,42.919 L224.136,42.919 L224.136,40.741 z M225.878,47.885 L225.878,71.236 L224.571,71.236 L224.571,47.885 L225.878,47.885 z" fill="#000000"/>
      <path d="M231.802,84 L231.802,47.711 C232.936,47.624 234.199,47.58 235.157,47.58 C245.003,47.58 249.926,53.505 249.926,59.473 C249.926,65.485 245.003,71.41 235.114,71.41 C234.46,71.41 233.85,71.366 233.11,71.322 L233.11,83.999 L231.802,83.999 z M233.109,48.931 L233.109,70.016 C233.806,70.059 234.504,70.104 235.113,70.104 C244.131,70.104 248.618,64.788 248.618,59.474 C248.618,54.159 244.131,48.888 235.157,48.888 C234.547,48.887 233.85,48.887 233.109,48.931 z" fill="#000000"/>
      <path d="M266.391,47.449 C273.056,47.449 278.502,52.895 278.502,59.561 C278.502,66.227 273.056,71.672 266.391,71.672 C259.726,71.672 254.28,66.227 254.28,59.561 C254.28,52.895 259.726,47.449 266.391,47.449 z M266.391,70.364 C272.359,70.364 277.195,65.529 277.195,59.561 C277.195,53.593 272.359,48.757 266.391,48.757 C260.422,48.757 255.587,53.593 255.587,59.561 C255.587,65.529 260.422,70.364 266.391,70.364 z" fill="#000000"/>
      <path d="M282.681,47.667 L290.741,68.534 L298.8,47.667 L300.02,48.103 L290.741,72.107 L281.462,48.103 L282.681,47.667 z" fill="#000000"/>
    </g>
    <path d="M95.423,34.929 L95.55,34.901 L94.52,32.817 L94.01,31.772 L93.753,31.251 L93.46,30.75 L92.288,28.74 C92.089,28.407 91.915,28.058 91.695,27.739 L91.039,26.777 L89.729,24.85 L88.288,23.015 L87.565,22.098 C87.327,21.789 87.045,21.519 86.787,21.228 L85.201,19.509 C84.664,18.944 84.071,18.436 83.507,17.896 C82.934,17.366 82.377,16.815 81.754,16.343 L79.929,14.873 C79.316,14.386 78.657,13.967 78.022,13.51 C76.756,12.586 75.381,11.84 74.045,11.028 C73.368,10.637 72.658,10.311 71.966,9.949 C71.268,9.598 70.579,9.229 69.859,8.93 L67.714,7.995 C66.998,7.687 66.26,7.435 65.535,7.154 C64.086,6.577 62.6,6.118 61.125,5.628 C59.637,5.179 58.144,4.755 56.641,4.36 C55.133,3.985 53.624,3.594 52.117,3.294 C51.358,3.136 50.62,2.962 49.844,2.819 L47.554,2.416 L42.976,1.633 C42.212,1.521 41.453,1.359 40.685,1.289 L38.384,1.038 C37.08,0.891 35.774,0.76 34.468,0.632 L33.345,0 L32.886,0.011 L32.894,0.451 C32.931,2.33 33.002,4.21 33.06,6.09 L33.625,6.13 C33.725,5.221 33.808,4.31 33.867,3.395 C33.884,3.035 33.888,2.674 33.896,2.313 L33.896,1.789 C33.89,1.591 33.883,1.393 33.876,1.196 L33.896,1.207 L33.896,1.203 L35.095,0.985 C36.165,1.186 37.235,1.388 38.308,1.575 L40.586,1.98 C41.349,2.102 42.09,2.315 42.842,2.476 L47.341,3.481 L49.59,3.971 C50.325,4.135 51.081,4.343 51.827,4.526 C53.33,4.892 54.795,5.318 56.272,5.719 C57.741,6.144 59.206,6.599 60.658,7.077 C62.1,7.582 63.56,8.044 64.971,8.628 C65.679,8.913 66.399,9.167 67.096,9.477 L69.186,10.403 C69.892,10.692 70.565,11.049 71.246,11.388 C71.923,11.736 72.616,12.054 73.279,12.426 C74.596,13.182 75.953,13.88 77.207,14.742 C77.843,15.158 78.506,15.538 79.121,15.984 L80.96,17.335 C81.59,17.768 82.152,18.28 82.735,18.772 C83.307,19.273 83.911,19.742 84.461,20.27 L86.087,21.879 C86.353,22.153 86.643,22.405 86.89,22.696 L87.64,23.561 L89.138,25.298 L90.487,27.156 C91.433,28.365 92.154,29.724 92.959,31.028 L93.254,31.521 L93.513,32.035 L94.028,33.064 L94.767,34.56 L94.756,34.554 L94.972,34.986 L94.979,34.99 L95.046,35.127 L95.572,36.191 L95.573,35.014 L95.423,34.929 z" fill="#004987"/>
  </g>
</svg>
