<svg width="54" height="54" viewBox="0 0 54 54" fill="none" xmlns="http://www.w3.org/2000/svg">
<g clip-path="url(#clip0_19_551)">
<path d="M12.6946 43.8363C12.9189 45.2839 13.1521 46.6011 13.3465 47.642C13.6228 49.1062 14.6637 50.2819 16.1367 50.504C17.2926 50.6797 18.8982 50.8311 20.9956 50.8311C22.9901 50.8311 24.6289 50.6941 25.8765 50.5306C27.6269 50.3007 28.8534 48.8443 29.0435 47.0895L29.3982 43.8164" stroke="white" stroke-width="3.31509" stroke-linecap="round" stroke-linejoin="round"/>
<path d="M39.3645 2.8773C39.4597 2.7035 39.5999 2.55851 39.7704 2.45751C39.9409 2.35651 40.1355 2.30322 40.3336 2.30322C40.5318 2.30322 40.7263 2.35651 40.8968 2.45751C41.0673 2.55851 41.2075 2.7035 41.3027 2.8773L43.504 6.90182C44.1124 8.01425 45.027 8.92889 46.1395 9.53732L50.164 11.7385C50.3378 11.8338 50.4828 11.974 50.5838 12.1445C50.6848 12.315 50.738 12.5095 50.738 12.7076C50.738 12.9058 50.6848 13.1003 50.5838 13.2708C50.4828 13.4413 50.3378 13.5815 50.164 13.6768L46.1395 15.878C45.027 16.4864 44.1124 17.401 43.504 18.5135L41.3027 22.538C41.2075 22.7118 41.0673 22.8568 40.8968 22.9578C40.7263 23.0588 40.5318 23.1121 40.3336 23.1121C40.1355 23.1121 39.9409 23.0588 39.7704 22.9578C39.5999 22.8568 39.4597 22.7118 39.3645 22.538L37.1633 18.5135C36.5549 17.401 35.6402 16.4864 34.5278 15.878L30.5033 13.6768C30.3295 13.5815 30.1845 13.4413 30.0835 13.2708C29.9825 13.1003 29.9292 12.9058 29.9292 12.7076C29.9292 12.5095 29.9825 12.315 30.0835 12.1445C30.1845 11.974 30.3295 11.8338 30.5033 11.7385L34.5278 9.53732C35.6402 8.92889 36.5549 8.01425 37.1633 6.90182L39.3645 2.8773Z" stroke="white" stroke-width="3.31509"/>
<path d="M28.1783 5.8421C25.9005 4.90151 23.4599 4.41827 20.9956 4.41993C10.6205 4.41993 2.21008 12.8303 2.21008 23.2054C2.21008 29.2091 5.02681 34.5552 9.41046 37.9941C9.73349 39.2853 10.0913 40.5676 10.4834 41.8396C10.8227 42.9424 11.7388 43.7435 12.8869 43.864C14.4262 44.0242 17.0219 44.201 20.9956 44.201C24.9693 44.201 27.565 44.0242 29.1043 43.864C30.2524 43.7435 31.1685 42.9424 31.5067 41.8385C31.8238 40.8075 32.2249 39.4295 32.5807 37.9941C35.37 35.8082 37.4858 32.8796 38.6849 29.545" stroke="white" stroke-width="3.31509" stroke-linecap="round" stroke-linejoin="round"/>
</g>
<defs>
<clipPath id="clip0_19_551">
<rect width="53.0415" height="53.0415" fill="white"/>
</clipPath>
</defs>
</svg>
