<svg width="32" height="46" viewBox="0 0 32 46" fill="none" xmlns="http://www.w3.org/2000/svg">
<path d="M14.3193 33.0039V31.256H17.461V33.0039H14.3193ZM14.3193 30.121V28.4933C13.658 28.1059 13.1147 27.6133 12.6894 27.0156C12.2642 26.4178 12.0508 25.736 12.0493 24.9703C12.0493 23.9261 12.4276 23.0249 13.1843 22.2667C13.944 21.5085 14.846 21.1294 15.8902 21.1294C16.9344 21.1294 17.8356 21.5077 18.5938 22.2644C19.352 23.0241 19.7311 23.9261 19.7311 24.9703C19.7311 25.736 19.5177 26.4178 19.0909 27.0156C18.6641 27.6133 18.1208 28.1059 17.461 28.4933V30.121H14.3193ZM24.884 30.575L23.4176 29.138C23.7747 28.4949 24.0502 27.8214 24.2439 27.1177C24.4376 26.414 24.5344 25.6982 24.5344 24.9703C24.5344 24.2423 24.4376 23.5265 24.2439 22.8228C24.0502 22.1191 23.7747 21.4457 23.4176 20.8025L24.8817 19.3656C25.4356 20.204 25.851 21.0961 26.128 22.0419C26.4034 22.9878 26.5411 23.9639 26.5411 24.9703C26.5411 25.9766 26.4034 26.9528 26.128 27.8986C25.8526 28.8444 25.4379 29.7373 24.884 30.5772M6.8986 30.5772C6.34472 29.7388 5.93006 28.846 5.65463 27.8986C5.37769 26.9543 5.23922 25.9782 5.23922 24.9703C5.23922 22.0041 6.27283 19.4874 8.34007 17.4202C10.4073 15.3529 12.924 14.3193 15.8902 14.3193V12.3535L19.2498 15.3227L15.8902 18.2919V16.326C13.4915 16.326 11.4515 17.1674 9.77019 18.8503C8.08885 20.5331 7.24743 22.5731 7.24592 24.9703C7.24592 25.6967 7.34277 26.4125 7.53648 27.1177C7.73019 27.8229 8.00638 28.4964 8.36504 29.138L6.8986 30.5772ZM3.66836 45.4005C2.65139 45.4005 1.78575 45.0433 1.07145 44.329C0.357151 43.6147 0 42.7499 0 41.7344V3.66609C0 2.65215 0.357151 1.78727 1.07145 1.07145C1.78575 0.35715 2.65139 0 3.66836 0H28.1143C29.1282 0 29.9931 0.35715 30.7089 1.07145C31.4232 1.78575 31.7803 2.65139 31.7803 3.66836V41.7344C31.7803 42.7483 31.4232 43.6132 30.7089 44.329C29.9946 45.0433 29.1297 45.4005 28.1143 45.4005H3.66836ZM2.27002 37.4554H29.5103V7.94509H2.27002V37.4554ZM2.27002 39.7254V41.7344C2.27002 42.1415 2.40093 42.4759 2.66274 42.7378C2.92455 42.9996 3.25976 43.1305 3.66836 43.1305H28.1143C28.5213 43.1305 28.8558 42.9996 29.1176 42.7378C29.3794 42.4759 29.5103 42.1407 29.5103 41.7321V39.7254H2.27002ZM2.27002 5.67506H29.5103V3.66609C29.5103 3.259 29.3794 2.92455 29.1176 2.66274C28.8558 2.40093 28.5213 2.27002 28.1143 2.27002H3.66609C3.259 2.27002 2.92455 2.40093 2.66274 2.66274C2.40093 2.92455 2.27002 3.25976 2.27002 3.66836V5.67506Z" fill="#4887AD"/>
</svg>
