<svg width="50" height="50" viewBox="0 0 50 50" fill="none" xmlns="http://www.w3.org/2000/svg">
<path d="M26.1053 27.9213C25.6513 26.7863 25.6513 25.8783 25.8783 24.9703H4.54005V7.94508L18.1602 17.0252L31.7803 7.94508V11.8041C33.1424 11.1231 34.2774 11.1231 34.9584 11.1231C35.1854 10.8961 35.6394 10.6691 36.0934 10.4421V3.63204C36.3204 1.58902 34.7314 0 32.6884 0H3.63204C1.58902 0 0 1.58902 0 3.63204V25.8783C0 27.9213 1.58902 29.5103 3.63204 29.5103H27.0133C26.5593 29.0563 26.3323 28.6023 26.1053 27.9213ZM31.7803 4.54005L18.1602 13.6201L4.54005 4.54005H31.7803ZM49.0325 20.2032C48.5785 18.8412 47.4435 18.6142 46.7625 17.9332C46.3085 17.2522 46.3085 15.8902 45.1735 15.2092C44.0385 14.3012 42.9035 14.7552 41.9955 14.5282C41.0874 14.3012 40.4064 13.1661 39.0444 13.1661C37.6824 13.1661 37.0014 14.0741 36.0934 14.5282C35.1854 14.7552 34.0504 14.3012 32.9154 15.2092C31.7803 15.8902 32.0073 17.0252 31.3263 17.9332C30.6453 18.6142 29.5103 19.0682 29.0563 20.2032C28.6023 21.5652 29.5103 22.4732 29.5103 23.3812C29.5103 24.2893 28.6023 25.1973 29.0563 26.5593C29.5103 27.9213 30.6453 28.1483 31.3263 28.8293C31.7803 29.5103 31.7803 30.8723 32.9154 31.5533C34.0504 32.4613 35.1854 32.0073 36.0934 32.2343C37.0014 32.4613 37.6824 33.5964 39.0444 33.5964C40.4064 33.5964 41.0874 32.6883 41.9955 32.2343C42.9035 32.0073 44.0385 32.4613 45.1735 31.5533C46.3085 30.6453 46.3085 29.5103 46.7625 28.8293C47.4435 28.1483 48.5785 27.6943 49.0325 26.5593C49.4865 25.1973 48.5785 24.2893 48.5785 23.3812C48.5785 22.4732 49.4865 21.5652 49.0325 20.2032ZM39.0444 30.4183C35.1854 30.4183 32.2343 27.2403 32.2343 23.6082C32.2343 19.9762 35.4124 16.7982 39.0444 16.7982C42.6765 16.7982 45.8545 19.9762 45.8545 23.6082C45.8545 27.2403 42.9035 30.4183 39.0444 30.4183ZM42.4495 23.3812C42.4495 25.1973 40.8604 26.7863 39.0444 26.7863C37.2284 26.7863 35.6394 25.1973 35.6394 23.3812C35.6394 21.5652 37.2284 19.9762 39.0444 19.9762C40.8604 19.9762 42.4495 21.5652 42.4495 23.3812ZM41.9955 36.5474L40.8604 42.6764L39.4984 49.7135L34.9584 45.4005L29.5103 47.8975L31.7803 34.9584C32.6884 35.4124 33.8234 35.6394 34.9584 35.6394C35.6394 36.0934 36.5474 36.5474 37.2284 36.7744C37.6824 37.0014 38.3634 37.0014 39.0444 37.0014C40.1794 37.2284 41.0874 37.0014 41.9955 36.5474ZM49.2595 41.9954L44.7195 40.4064L45.6275 35.4124L46.9895 34.7314L47.2165 34.5044L49.2595 41.9954Z" fill="#4887AD"/>
</svg>
