<svg width="44" height="44" viewBox="0 0 44 44" fill="none" xmlns="http://www.w3.org/2000/svg">
<path fill-rule="evenodd" clip-rule="evenodd" d="M21.8315 0C17.1173 0 13.424 1.21693e-07 10.5411 0.387917C7.59296 0.784 5.26546 1.61292 3.43817 3.43817C1.61088 5.26546 0.784 7.59296 0.387917 10.5432C1.21693e-07 13.424 0 17.1173 0 21.8315V22.0643C0 26.7785 1.21693e-07 30.4719 0.387917 33.3547C0.784 36.3029 1.61292 38.6304 3.43817 40.4577C5.26546 42.285 7.59296 43.1118 10.5432 43.5079C12.2582 43.7386 14.2651 43.8325 16.6028 43.8713C16.7736 43.9008 16.948 43.9028 17.1194 43.8775C18.69 43.8932 20.2608 43.8993 21.8315 43.8958H22.0643C23.8201 43.8958 25.4371 43.8958 26.9194 43.8754C27.0996 43.903 27.2832 43.9003 27.4625 43.8673C29.7287 43.8264 31.6785 43.7345 33.3527 43.5079C36.3029 43.1118 38.6304 42.2829 40.4577 40.4577C42.285 38.6304 43.1118 36.3029 43.5079 33.3527C43.8958 30.4719 43.8958 26.7785 43.8958 22.0643V21.8315C43.8958 17.1173 43.8958 13.424 43.5079 10.5411C43.1118 7.59296 42.2829 5.26546 40.4577 3.43817C38.6304 1.61088 36.3029 0.784 33.3527 0.387917C30.4719 1.21693e-07 26.7785 0 22.0643 0H21.8315ZM28.6997 40.7762C30.1196 40.7494 31.537 40.6485 32.9464 40.474C35.5556 40.1228 37.1297 39.4532 38.2915 38.2915C39.4552 37.1277 40.1228 35.5556 40.474 32.9443C40.8293 30.2902 40.8333 26.803 40.8333 21.9479C40.8333 17.0928 40.8293 13.6057 40.474 10.9515C40.1228 8.34021 39.4532 6.76608 38.2915 5.60233C37.1277 4.44063 35.5556 3.773 32.9443 3.42183C31.5096 3.24765 30.0671 3.14612 28.6221 3.11762V5.73912C28.6221 5.84529 28.663 6.01883 28.8733 6.26996C29.0897 6.52721 29.4184 6.78446 29.8063 7.00496C32.191 8.35654 33.7651 11.3129 33.7651 13.967C33.7653 15.3408 33.3416 16.6812 32.5517 17.8053C31.7619 18.9293 30.6444 19.7822 29.3519 20.2476C28.0593 20.713 26.6546 20.7682 25.3295 20.4057C24.0044 20.0431 22.8235 19.2805 21.9479 18.2219C21.0722 19.2806 19.8911 20.0433 18.5658 20.4058C17.2405 20.7683 15.8357 20.7129 14.543 20.2473C13.2504 19.7816 12.1329 18.9284 11.3432 17.804C10.5536 16.6796 10.1301 15.339 10.1307 13.965C10.1307 11.3108 11.7028 8.3545 14.0895 7.00292C14.4775 6.78242 14.8062 6.52517 15.0205 6.26792C15.2308 6.01679 15.2737 5.84325 15.2737 5.73708V3.11762C13.6138 3.16663 12.1908 3.25646 10.9515 3.42388C8.34021 3.773 6.76608 4.44063 5.60233 5.60437C4.44063 6.76813 3.773 8.34021 3.42183 10.9515C3.06658 13.6057 3.0625 17.0928 3.0625 21.9479C3.0625 26.803 3.06658 30.2902 3.42183 32.9443C3.773 35.5556 4.44267 37.1298 5.60437 38.2935C6.76813 39.4552 8.34021 40.1228 10.9515 40.474C12.4119 40.6515 13.8804 40.7537 15.3513 40.7803V38.2486C15.3513 38.1424 15.3105 37.9689 15.0981 37.7178C14.8323 37.4211 14.5173 37.1725 14.1671 36.9828C11.7825 35.6332 10.2083 32.6748 10.2083 30.0207C10.2085 28.6471 10.6326 27.307 11.4226 26.1832C12.2126 25.0595 13.33 24.2069 14.6225 23.7418C15.915 23.2767 17.3195 23.2216 18.6444 23.5842C19.9693 23.9468 21.15 24.7094 22.0255 25.7679C22.9011 24.7093 24.082 23.9466 25.4071 23.5841C26.7322 23.2216 28.1369 23.2767 29.4295 23.7421C30.722 24.2075 31.8395 25.0604 32.6293 26.1845C33.4191 27.3085 33.8429 28.6489 33.8427 30.0227C33.8427 32.6748 32.2706 35.6332 29.8839 36.9848C29.5329 37.1744 29.2173 37.423 28.9508 37.7198C28.7426 37.9689 28.6997 38.1424 28.6997 38.2506V40.7762ZM18.4138 40.8272C19.5027 40.8327 20.6807 40.8347 21.9479 40.8333C23.2736 40.8347 24.5034 40.832 25.6372 40.8252V38.2506C25.6372 37.2216 26.0803 36.3764 26.605 35.7516C27.1065 35.1739 27.7057 34.6888 28.3751 34.3184C29.7246 33.5548 30.7802 31.6601 30.7802 30.0207C30.7487 29.0838 30.3543 28.1958 29.6805 27.5442C29.0066 26.8926 28.1059 26.5284 27.1685 26.5284C26.2311 26.5284 25.3303 26.8926 24.6565 27.5442C23.9826 28.1958 23.5883 29.0838 23.5568 30.0207C23.5568 30.4268 23.3954 30.8163 23.1083 31.1034C22.8211 31.3906 22.4316 31.5519 22.0255 31.5519C21.6194 31.5519 21.2299 31.3906 20.9427 31.1034C20.6556 30.8163 20.4943 30.4268 20.4943 30.0207C20.4943 29.0628 20.1137 28.1441 19.4364 27.4668C18.7591 26.7895 17.8404 26.409 16.8825 26.409C15.9247 26.409 15.006 26.7895 14.3287 27.4668C13.6514 28.1441 13.2708 29.0628 13.2708 30.0207C13.2708 31.6601 14.3264 33.5527 15.6759 34.3184C16.2762 34.6593 16.9275 35.133 17.446 35.7516C17.9708 36.3764 18.4138 37.2216 18.4138 38.2506V40.8272ZM18.3362 3.07067V5.73708C18.3362 6.76404 17.8911 7.61133 17.3685 8.23608C16.8667 8.81306 16.2676 9.29748 15.5983 9.66729C14.2488 10.4329 13.1933 12.3255 13.1933 13.965C13.1933 14.9229 13.5738 15.8415 14.2511 16.5189C14.9284 17.1962 15.8471 17.5767 16.805 17.5767C17.7628 17.5767 18.6815 17.1962 19.3588 16.5189C20.0361 15.8415 20.4167 14.9229 20.4167 13.965C20.4167 13.5589 20.578 13.1694 20.8652 12.8822C21.1523 12.5951 21.5418 12.4338 21.9479 12.4338C22.354 12.4338 22.7435 12.5951 23.0307 12.8822C23.3178 13.1694 23.4792 13.5589 23.4792 13.965C23.4792 14.4393 23.5726 14.9089 23.7541 15.3471C23.9356 15.7853 24.2016 16.1835 24.537 16.5189C24.8724 16.8542 25.2705 17.1203 25.7087 17.3018C26.1469 17.4833 26.6166 17.5767 27.0909 17.5767C27.5652 17.5767 28.0348 17.4833 28.473 17.3018C28.9112 17.1203 29.3094 16.8542 29.6447 16.5189C29.9801 16.1835 30.2462 15.7853 30.4277 15.3471C30.6092 14.9089 30.7026 14.4393 30.7026 13.965C30.7026 12.3255 29.647 10.4329 28.2975 9.66729C27.6283 9.29748 27.0291 8.81306 26.5274 8.23608C26.0027 7.61133 25.5596 6.76608 25.5596 5.73708V3.07067C24.449 3.06386 23.2451 3.06114 21.9479 3.0625C20.6508 3.06114 19.4462 3.06386 18.3342 3.07067" fill="url(#paint0_linear_19_620)"/>
<defs>
<linearGradient id="paint0_linear_19_620" x1="21.9479" y1="0" x2="21.9479" y2="43.8968" gradientUnits="userSpaceOnUse">
<stop stop-color="#1A6286"/>
<stop offset="1" stop-color="#A9DFFF"/>
</linearGradient>
</defs>
</svg>
