<svg width="502" height="465" viewBox="0 0 502 465" fill="none" xmlns="http://www.w3.org/2000/svg">
<g opacity="0.48">
<path d="M461.976 201.984L381.827 160.018L301.756 201.883L301.826 281.211L387.228 324.849L461.937 285.755L461.957 201.974L461.976 201.984ZM381.835 162.365L459.731 203.152L459.704 284.585L387.21 322.519L304.052 280.032L303.989 203.052L381.835 162.365Z" fill="url(#paint0_linear_1_63)"/>
<path d="M304.003 201.889L226.029 161.061L148.003 199.755L148.084 277.846L228.57 320.177L303.279 281.082L303.973 201.896L304.003 201.889ZM225.987 163.406L301.727 203.064L301.068 279.877L228.574 317.811L150.321 276.65L150.244 200.952L225.976 163.424L225.987 163.406Z" fill="url(#paint1_linear_1_63)"/>
<path d="M378.674 61.7953L300.701 20.9678L222.674 59.6615L222.755 137.752L303.241 180.083L377.95 140.988L378.644 61.8027L378.674 61.7953ZM300.658 23.3128L376.398 62.9708L375.739 139.784L303.245 177.718L224.992 136.557L224.916 60.8586L300.647 23.3303L300.658 23.3128Z" fill="url(#paint2_linear_1_63)"/>
<path d="M124.864 206.032L74.5105 179.666L24.1226 204.654L24.1748 255.083L76.1514 282.419L124.397 257.173L124.845 206.036L124.864 206.032ZM74.483 181.18L123.395 206.791L122.969 256.395L76.1539 280.892L25.6196 254.311L25.5702 205.427L74.4757 181.192L74.483 181.18Z" fill="url(#paint3_linear_1_63)"/>
<path d="M229.78 318.278L149.631 276.312L69.5596 318.177L69.63 397.505L155.032 441.144L229.741 402.049L229.761 318.268L229.78 318.278ZM149.638 278.66L227.535 319.446L227.508 400.879L155.014 438.814L71.856 396.327L71.793 319.346L149.638 278.66Z" fill="url(#paint4_linear_1_63)"/>
<path d="M387.653 322.799L302.944 279.453L227.542 318.255L227.483 402.015L309.768 445.1L385.14 406.305L387.653 322.799ZM302.952 281.8L385.377 323.974L382.949 405.111L309.78 442.762L229.729 400.847L229.795 319.434L302.963 281.783L302.952 281.8Z" fill="url(#paint5_linear_1_63)"/>
</g>
<defs>
<linearGradient id="paint0_linear_1_63" x1="343.988" y1="303.287" x2="329.016" y2="190.875" gradientUnits="userSpaceOnUse">
<stop stop-color="#4887AD"/>
<stop offset="1" stop-color="#00269A" stop-opacity="0"/>
</linearGradient>
<linearGradient id="paint1_linear_1_63" x1="188.292" y1="299.087" x2="173.892" y2="190.233" gradientUnits="userSpaceOnUse">
<stop stop-color="#4887AD"/>
<stop offset="1" stop-color="#00269A" stop-opacity="0"/>
</linearGradient>
<linearGradient id="paint2_linear_1_63" x1="262.963" y1="158.993" x2="248.563" y2="50.1392" gradientUnits="userSpaceOnUse">
<stop stop-color="#4887AD"/>
<stop offset="1" stop-color="#00269A" stop-opacity="0"/>
</linearGradient>
<linearGradient id="paint3_linear_1_63" x1="50.1405" y1="268.8" x2="40.841" y2="198.504" gradientUnits="userSpaceOnUse">
<stop stop-color="#4887AD"/>
<stop offset="1" stop-color="#00269A" stop-opacity="0"/>
</linearGradient>
<linearGradient id="paint4_linear_1_63" x1="111.792" y1="419.581" x2="96.8203" y2="307.169" gradientUnits="userSpaceOnUse">
<stop stop-color="#4887AD"/>
<stop offset="1" stop-color="#00269A" stop-opacity="0"/>
</linearGradient>
<linearGradient id="paint5_linear_1_63" x1="267.655" y1="423.049" x2="252.699" y2="310.619" gradientUnits="userSpaceOnUse">
<stop stop-color="#4887AD"/>
<stop offset="1" stop-color="#00269A" stop-opacity="0"/>
</linearGradient>
</defs>
</svg>
