<svg width="54" height="54" viewBox="0 0 54 54" fill="none" xmlns="http://www.w3.org/2000/svg">
<path d="M40.1169 25.095C40.7689 25.7468 41.286 26.5207 41.6389 27.3724C41.9917 28.2241 42.1733 29.137 42.1733 30.0588C42.1733 30.9807 41.9917 31.8936 41.6389 32.7453C41.286 33.597 40.7689 34.3708 40.1169 35.0226L40.0948 35.0447L26.5206 48.6211L12.942 35.0425L12.9221 35.0226C12.2549 34.356 11.729 33.5617 11.3759 32.6871C11.0228 31.8126 10.8498 30.8758 10.8672 29.9328C10.8845 28.9898 11.0919 28.06 11.4769 27.199C11.862 26.338 12.4167 25.5636 13.108 24.922C13.7993 24.2804 14.6129 23.7848 15.5001 23.4649C16.3874 23.145 17.33 23.0074 18.2717 23.0603C19.2134 23.1132 20.1347 23.3555 20.9805 23.7727C21.8264 24.1899 22.5794 24.7735 23.1945 25.4884L26.5206 28.8168L29.7252 25.6122C30.3465 24.8537 31.1197 24.2338 31.9951 23.7925C32.8706 23.3511 33.8288 23.0979 34.808 23.0494C35.7872 23.0009 36.7657 23.1581 37.6805 23.5108C38.5952 23.8635 39.426 24.4039 40.1191 25.0973L40.1169 25.095ZM19.8882 11.0501C19.8882 11.9208 20.0597 12.783 20.3929 13.5874C20.7261 14.3918 21.2145 15.1227 21.8302 15.7384C22.4458 16.354 23.1767 16.8424 23.9812 17.1756C24.7856 17.5088 25.6477 17.6803 26.5184 17.6803C27.3891 17.6803 28.2513 17.5088 29.0557 17.1756C29.8601 16.8424 30.591 16.354 31.2067 15.7384C31.8223 15.1227 32.3107 14.3918 32.6439 13.5874C32.9771 12.783 33.1486 11.9208 33.1486 11.0501C33.1486 10.1794 32.9771 9.31725 32.6439 8.51284C32.3107 7.70843 31.8223 6.97753 31.2067 6.36186C30.591 5.74619 29.8601 5.25781 29.0557 4.92461C28.2513 4.59142 27.3891 4.41992 26.5184 4.41992C25.6477 4.41992 24.7856 4.59142 23.9812 4.92461C23.1767 5.25781 22.4458 5.74619 21.8302 6.36186C21.2145 6.97753 20.7261 7.70843 20.3929 8.51284C20.0597 9.31725 19.8882 10.1794 19.8882 11.0501Z" stroke="white" stroke-width="3.31509"/>
</svg>
