<svg width="44" height="44" viewBox="0 0 44 44" fill="none" xmlns="http://www.w3.org/2000/svg">
<path d="M26.0308 7.65555C25.01 8.67638 22.9622 8.49671 19.9058 5.97321M19.9058 5.97321C20.3577 5.60299 20.8266 5.17696 21.3125 4.69513C26.0206 0.0319623 32.4314 0.944587 35.4347 4.69513C36.7128 6.29171 39.2179 9.35217 37.9153 16.843M19.9058 5.97321C19.4539 5.60299 18.985 5.17696 18.4991 4.69513C13.791 0.0319623 7.38017 0.944587 4.37688 4.69513C2.30255 7.28805 -3.00578 13.7397 9.98738 36.7289C10.5264 37.6803 11.5983 38.2805 12.7518 38.2805C14.5934 38.2805 16.0328 36.8105 16.092 35.0955C16.1859 32.4353 16.7004 29.4708 18.1357 28.0722M30.1141 32.1555L31.5106 33.552C31.8108 33.8522 31.9618 34.0033 32.1436 33.993C32.3273 33.9828 32.46 33.8175 32.7254 33.4847L36.2391 29.093M23.9891 28.9991V29.7872C23.9891 32.2413 23.9891 33.4683 24.2913 34.5913C24.6688 35.9841 25.3793 37.2642 26.3616 38.3214C27.1578 39.183 28.2113 39.8526 30.3163 41.194C31.2575 41.7943 31.7291 42.0944 32.2313 42.2353C32.85 42.4068 33.5053 42.4068 34.124 42.2353C34.6242 42.0944 35.0958 41.7943 36.037 41.194C38.142 39.8526 39.1955 39.183 39.9917 38.3214C40.9739 37.2642 41.6844 35.9841 42.062 34.5913C42.3641 33.4683 42.3641 32.2433 42.3641 29.7872V28.9991C42.3641 27.472 42.3641 26.7084 42.0742 26.0632C41.8923 25.665 41.6367 25.3048 41.3208 25.0015C40.8043 24.5115 40.0713 24.242 38.6054 23.7051L35.596 22.6026C34.3996 22.1657 33.8014 21.9472 33.1766 21.9472C32.5519 21.9472 31.9537 22.1657 30.7573 22.6046L27.7478 23.7071C26.2819 24.242 25.549 24.5095 25.0324 25.0015C24.7159 25.3046 24.4595 25.6648 24.277 26.0632C23.9891 26.7084 23.9891 27.472 23.9891 28.9991Z" stroke="url(#paint0_linear_19_618)" stroke-width="3.0625" stroke-linecap="round" stroke-linejoin="round"/>
<defs>
<linearGradient id="paint0_linear_19_618" x1="21.9477" y1="1.53076" x2="21.9477" y2="42.3639" gradientUnits="userSpaceOnUse">
<stop stop-color="#1A6286"/>
<stop offset="1" stop-color="#A9DFFF"/>
</linearGradient>
</defs>
</svg>
