<svg width="54" height="54" viewBox="0 0 54 54" fill="none" xmlns="http://www.w3.org/2000/svg">
<path d="M27.6257 29.3942C27.1837 28.2892 27.1837 27.4051 27.4047 26.5211H6.63008V9.94566L19.8905 18.7859L33.1508 9.94566V13.7028C34.4769 13.0397 35.5819 13.0398 36.2449 13.0398C36.4659 12.8187 36.9079 12.5977 37.3499 12.3767V5.74655C37.5709 3.75749 36.0239 2.21045 34.0348 2.21045H5.74606C3.757 2.21045 2.20996 3.75749 2.20996 5.74655V27.4051C2.20996 29.3942 3.757 30.9412 5.74606 30.9412H28.5097C28.0677 30.4992 27.8467 30.0572 27.6257 29.3942ZM33.1508 6.63057L19.8905 15.4708L6.63008 6.63057H33.1508ZM49.9473 21.88C49.5053 20.554 48.4002 20.333 47.7372 19.6699C47.2952 19.0069 47.2952 17.6809 46.1902 17.0179C45.0852 16.1338 43.9801 16.5758 43.0961 16.3548C42.2121 16.1338 41.5491 15.0288 40.223 15.0288C38.897 15.0288 38.234 15.9128 37.3499 16.3548C36.4659 16.5758 35.3609 16.1338 34.2559 17.0179C33.1508 17.6809 33.3718 18.7859 32.7088 19.6699C32.0458 20.333 30.9408 20.775 30.4987 21.88C30.0567 23.206 30.9408 24.0901 30.9408 24.9741C30.9408 25.8581 30.0567 26.7421 30.4987 28.0682C30.9408 29.3942 32.0458 29.6152 32.7088 30.2782C33.1508 30.9412 33.1508 32.2673 34.2559 32.9303C35.3609 33.8143 36.4659 33.3723 37.3499 33.5933C38.234 33.8143 38.897 34.9194 40.223 34.9194C41.5491 34.9194 42.2121 34.0353 43.0961 33.5933C43.9801 33.3723 45.0852 33.8143 46.1902 32.9303C47.2952 32.0463 47.2952 30.9412 47.7372 30.2782C48.4002 29.6152 49.5053 29.1732 49.9473 28.0682C50.3893 26.7421 49.5053 25.8581 49.5053 24.9741C49.5053 24.0901 50.3893 23.206 49.9473 21.88ZM40.223 31.8253C36.4659 31.8253 33.5928 28.7312 33.5928 25.1951C33.5928 21.659 36.6869 18.5649 40.223 18.5649C43.7591 18.5649 46.8532 21.659 46.8532 25.1951C46.8532 28.7312 43.9801 31.8253 40.223 31.8253ZM43.5381 24.9741C43.5381 26.7421 41.9911 28.2892 40.223 28.2892C38.455 28.2892 36.9079 26.7421 36.9079 24.9741C36.9079 23.206 38.455 21.659 40.223 21.659C41.9911 21.659 43.5381 23.206 43.5381 24.9741ZM43.0961 37.7924L41.9911 43.7596L40.665 50.6108L36.2449 46.4117L30.9408 48.8427L33.1508 36.2454C34.0348 36.6874 35.1399 36.9084 36.2449 36.9084C36.9079 37.3504 37.792 37.7924 38.455 38.0134C38.897 38.2345 39.56 38.2344 40.223 38.2344C41.3281 38.4555 42.2121 38.2345 43.0961 37.7924ZM50.1683 43.0966L45.7482 41.5495L46.6322 36.6874L47.9582 36.0244L48.1792 35.8034L50.1683 43.0966Z" fill="white"/>
</svg>
