<svg width="41" height="41" viewBox="0 0 41 41" fill="none" xmlns="http://www.w3.org/2000/svg">
<path d="M12.4807 24.2713C11.9866 23.7773 11.7396 23.1729 11.7396 22.4583C11.7396 21.7438 11.9866 21.1394 12.4807 20.6453C12.9748 20.1513 13.5784 19.9049 14.2917 19.9063C15.0049 19.9076 15.6092 20.1547 16.1047 20.6474C16.6001 21.1401 16.8465 21.7438 16.8438 22.4583C16.841 23.1729 16.594 23.7773 16.1026 24.2713C15.6113 24.7654 15.0076 25.0118 14.2917 25.0104C13.5757 25.0091 12.9714 24.762 12.4787 24.2693M24.7287 24.2693C24.2359 23.7766 23.9896 23.1729 23.9896 22.4583C23.9896 21.7438 24.2366 21.1394 24.7307 20.6453C25.2248 20.1513 25.8284 19.9049 26.5417 19.9063C27.2549 19.9076 27.8592 20.1547 28.3547 20.6474C28.8501 21.1401 29.0965 21.7438 29.0938 22.4583C29.091 23.1729 28.844 23.7773 28.3526 24.2713C27.8613 24.7654 27.2576 25.0118 26.5417 25.0104C25.8257 25.0091 25.2214 24.762 24.7287 24.2693ZM20.4167 36.75C24.9764 36.75 28.8385 35.1677 32.0031 32.0031C35.1677 28.8386 36.75 24.9764 36.75 20.4167C36.75 19.6 36.699 18.8092 36.5969 18.0443C36.4948 17.2793 36.3076 16.5389 36.0354 15.8229C35.3208 15.9931 34.6063 16.121 33.8917 16.2068C33.1771 16.2925 32.4285 16.3347 31.6458 16.3333C28.5493 16.3333 25.6229 15.6698 22.8667 14.3427C20.1104 13.0156 17.7625 11.1611 15.8229 8.77918C14.734 11.4333 13.1776 13.7391 11.1536 15.6963C9.12966 17.6536 6.77289 19.125 4.08334 20.1104V20.4167C4.08334 24.9764 5.66563 28.8386 8.83021 32.0031C11.9948 35.1677 15.8569 36.75 20.4167 36.75ZM20.4167 40.8333C17.5924 40.8333 14.9382 40.2977 12.4542 39.2266C9.97014 38.1554 7.80938 36.7003 5.97188 34.8615C4.13438 33.0226 2.68003 30.8618 1.60884 28.3792C0.537642 25.8965 0.0013637 23.2423 2.58439e-06 20.4167C-0.00135853 17.591 0.534919 14.9368 1.60884 12.4542C2.68275 9.97151 4.1371 7.81075 5.97188 5.97189C7.80666 4.13302 9.96742 2.67868 12.4542 1.60884C14.9409 0.539011 17.5951 0.00273253 20.4167 1.03114e-05C23.2383 -0.00271191 25.8924 0.533566 28.3792 1.60884C30.8659 2.68412 33.0267 4.13847 34.8615 5.97189C36.6962 7.8053 38.1513 9.96607 39.2265 12.4542C40.3018 14.9423 40.8374 17.5965 40.8333 20.4167C40.8293 23.2369 40.293 25.8911 39.2245 28.3792C38.156 30.8673 36.7017 33.0281 34.8615 34.8615C33.0212 36.6949 30.8605 38.1499 28.3792 39.2266C25.8979 40.3032 23.2437 40.8388 20.4167 40.8333ZM17.6604 4.33855C19.0896 6.7205 21.0292 8.6349 23.4792 10.0818C25.9292 11.5286 28.6514 12.2514 31.6458 12.25C32.1222 12.25 32.5816 12.2241 33.024 12.1724C33.4663 12.1207 33.9257 12.0615 34.4021 11.9948C32.9729 9.61286 31.0333 7.69914 28.5833 6.25364C26.1333 4.80814 23.4111 4.0847 20.4167 4.08334C19.9403 4.08334 19.4809 4.10921 19.0385 4.16093C18.5962 4.21265 18.1368 4.27186 17.6604 4.33855ZM4.95104 15.2615C6.68646 14.2747 8.2007 12.9986 9.49375 11.4333C10.7868 9.86807 11.7566 8.11564 12.4031 6.17605C10.6677 7.16286 9.15347 8.4389 7.86042 10.0042C6.56736 11.5695 5.59757 13.3219 4.95104 15.2615Z" fill="url(#paint0_linear_19_627)"/>
<defs>
<linearGradient id="paint0_linear_19_627" x1="20.4167" y1="0" x2="20.4167" y2="40.8334" gradientUnits="userSpaceOnUse">
<stop stop-color="#1A6286"/>
<stop offset="1" stop-color="#A9DFFF"/>
</linearGradient>
</defs>
</svg>
