<svg width="49" height="49" viewBox="0 0 49 49" fill="none" xmlns="http://www.w3.org/2000/svg">
<path d="M1.53125 13.7813V6.63542C1.53121 5.98369 1.73908 5.34895 2.12463 4.82351C2.51018 4.29806 3.0533 3.90931 3.675 3.71379C6.50883 2.80933 12.6277 1.53125 24.5 1.53125C36.3723 1.53125 42.4912 2.80933 45.325 3.71379C45.9445 3.91099 46.4851 4.30019 46.8687 4.82508C47.2522 5.34996 47.4588 5.98328 47.4585 6.63338V13.7792" stroke="url(#paint0_linear_19_622)" stroke-width="3.0625" stroke-linecap="round" stroke-linejoin="round"/>
<path d="M10.7188 13.7813C10.7188 13.178 10.5999 12.5806 10.3691 12.0233C10.1382 11.466 9.79984 10.9595 9.37327 10.533C8.9467 10.1064 8.44029 9.76804 7.88295 9.53718C7.32561 9.30632 6.72826 9.1875 6.125 9.1875C5.52174 9.1875 4.92439 9.30632 4.36705 9.53718C3.80971 9.76804 3.3033 10.1064 2.87673 10.533C2.45016 10.9595 2.11179 11.466 1.88093 12.0233C1.65007 12.5806 1.53125 13.178 1.53125 13.7813V16.8438C1.53125 17.656 1.85391 18.4349 2.42824 19.0093C3.00257 19.5836 3.78152 19.9063 4.59375 19.9063H7.65625C8.46848 19.9063 9.24744 19.5836 9.82177 19.0093C10.3961 18.4349 10.7188 17.656 10.7188 16.8438M10.7188 13.7813V16.8438M10.7188 13.7813C10.7188 12.5629 11.2027 11.3945 12.0642 10.533C12.9257 9.67148 14.0942 9.1875 15.3125 9.1875C16.5308 9.1875 17.6993 9.67148 18.5608 10.533C19.4223 11.3945 19.9063 12.5629 19.9063 13.7813M10.7188 16.8438C10.7188 17.656 11.0414 18.4349 11.6157 19.0093C12.1901 19.5836 12.969 19.9063 13.7813 19.9063H16.8438C17.656 19.9063 18.4349 19.5836 19.0093 19.0093C19.5836 18.4349 19.9063 17.656 19.9063 16.8438M19.9063 13.7813V16.8438M19.9063 13.7813C19.9063 12.5629 20.3902 11.3945 21.2517 10.533C22.1132 9.67148 23.2817 9.1875 24.5 9.1875C25.7183 9.1875 26.8868 9.67148 27.7483 10.533C28.6098 11.3945 29.0938 12.5629 29.0938 13.7813M19.9063 16.8438C19.9063 17.656 20.2289 18.4349 20.8032 19.0093C21.3776 19.5836 22.1565 19.9063 22.9688 19.9063H26.0313C26.8435 19.9063 27.6224 19.5836 28.1968 19.0093C28.7711 18.4349 29.0938 17.656 29.0938 16.8438M29.0938 13.7813V16.8438M29.0938 13.7813C29.0938 12.5629 29.5777 11.3945 30.4392 10.533C31.3007 9.67148 32.4692 9.1875 33.6875 9.1875C34.9058 9.1875 36.0743 9.67148 36.9358 10.533C37.7973 11.3945 38.2813 12.5629 38.2813 13.7813M29.0938 16.8438C29.0938 17.656 29.4164 18.4349 29.9907 19.0093C30.5651 19.5836 31.344 19.9063 32.1563 19.9063H35.2188C36.031 19.9063 36.8099 19.5836 37.3843 19.0093C37.9586 18.4349 38.2813 17.656 38.2813 16.8438M38.2813 13.7813V16.8438M38.2813 13.7813C38.2813 12.5629 38.7652 11.3945 39.6267 10.533C40.4882 9.67148 41.6567 9.1875 42.875 9.1875C44.0933 9.1875 45.2618 9.67148 46.1233 10.533C46.9848 11.3945 47.4688 12.5629 47.4688 13.7813V16.8438C47.4688 17.656 47.1461 18.4349 46.5718 19.0093C45.9974 19.5836 45.2185 19.9063 44.4063 19.9063H41.3438C40.5315 19.9063 39.7526 19.5836 39.1782 19.0093C38.6039 18.4349 38.2813 17.656 38.2813 16.8438M1.53125 35.2188V42.3646C1.53121 43.0163 1.73908 43.651 2.12463 44.1765C2.51018 44.7019 3.0533 45.0907 3.675 45.2862C6.50883 46.1907 12.6277 47.4688 24.5 47.4688C36.3723 47.4688 42.4912 46.1907 45.325 45.2862C45.9445 45.089 46.4851 44.6998 46.8687 44.1749C47.2522 43.65 47.4588 43.0167 47.4585 42.3666V35.2208" stroke="url(#paint1_linear_19_622)" stroke-width="3.0625" stroke-linecap="round" stroke-linejoin="round"/>
<path d="M10.7188 35.2188C10.7188 36.4371 10.2348 37.6055 9.37327 38.467C8.51178 39.3285 7.34334 39.8125 6.125 39.8125C4.90666 39.8125 3.73822 39.3285 2.87673 38.467C2.01523 37.6055 1.53125 36.4371 1.53125 35.2188V32.1563C1.53125 31.344 1.85391 30.5651 2.42824 29.9907C3.00257 29.4164 3.78152 29.0938 4.59375 29.0938H7.65625C8.46848 29.0938 9.24744 29.4164 9.82177 29.9907C10.3961 30.5651 10.7188 31.344 10.7188 32.1563M10.7188 35.2188V32.1563M10.7188 35.2188C10.7188 36.4371 11.2027 37.6055 12.0642 38.467C12.9257 39.3285 14.0942 39.8125 15.3125 39.8125C16.5308 39.8125 17.6993 39.3285 18.5608 38.467C19.4223 37.6055 19.9063 36.4371 19.9063 35.2188M10.7188 32.1563C10.7188 31.344 11.0414 30.5651 11.6157 29.9907C12.1901 29.4164 12.969 29.0938 13.7813 29.0938H16.8438C17.656 29.0938 18.4349 29.4164 19.0093 29.9907C19.5836 30.5651 19.9063 31.344 19.9063 32.1563M19.9063 35.2188V32.1563M19.9063 35.2188C19.9063 36.4371 20.3902 37.6055 21.2517 38.467C22.1132 39.3285 23.2817 39.8125 24.5 39.8125C25.7183 39.8125 26.8868 39.3285 27.7483 38.467C28.6098 37.6055 29.0938 36.4371 29.0938 35.2188M19.9063 32.1563C19.9063 31.344 20.2289 30.5651 20.8032 29.9907C21.3776 29.4164 22.1565 29.0938 22.9688 29.0938H26.0313C26.8435 29.0938 27.6224 29.4164 28.1968 29.9907C28.7711 30.5651 29.0938 31.344 29.0938 32.1563M29.0938 35.2188V32.1563M29.0938 35.2188C29.0938 36.4371 29.5777 37.6055 30.4392 38.467C31.3007 39.3285 32.4692 39.8125 33.6875 39.8125C34.9058 39.8125 36.0743 39.3285 36.9358 38.467C37.7973 37.6055 38.2813 36.4371 38.2813 35.2188M29.0938 32.1563C29.0938 31.344 29.4164 30.5651 29.9907 29.9907C30.5651 29.4164 31.344 29.0938 32.1563 29.0938H35.2188C36.031 29.0938 36.8099 29.4164 37.3843 29.9907C37.9586 30.5651 38.2813 31.344 38.2813 32.1563M38.2813 35.2188V32.1563M38.2813 35.2188C38.2813 36.4371 38.7652 37.6055 39.6267 38.467C40.4882 39.3285 41.6567 39.8125 42.875 39.8125C44.0933 39.8125 45.2618 39.3285 46.1233 38.467C46.9848 37.6055 47.4688 36.4371 47.4688 35.2188V32.1563C47.4688 31.344 47.1461 30.5651 46.5718 29.9907C45.9974 29.4164 45.2185 29.0938 44.4063 29.0938H41.3438C40.5315 29.0938 39.7526 29.4164 39.1782 29.9907C38.6039 30.5651 38.2813 31.344 38.2813 32.1563" stroke="url(#paint2_linear_19_622)" stroke-width="3.0625" stroke-linecap="round" stroke-linejoin="round"/>
<defs>
<linearGradient id="paint0_linear_19_622" x1="24.4949" y1="1.53125" x2="24.4949" y2="13.7812" gradientUnits="userSpaceOnUse">
<stop stop-color="#1A6286"/>
<stop offset="1" stop-color="#A9DFFF"/>
</linearGradient>
<linearGradient id="paint1_linear_19_622" x1="24.5" y1="9.1875" x2="24.5" y2="47.4688" gradientUnits="userSpaceOnUse">
<stop stop-color="#1A6286"/>
<stop offset="1" stop-color="#A9DFFF"/>
</linearGradient>
<linearGradient id="paint2_linear_19_622" x1="24.5" y1="29.0938" x2="24.5" y2="39.8125" gradientUnits="userSpaceOnUse">
<stop stop-color="#1A6286"/>
<stop offset="1" stop-color="#A9DFFF"/>
</linearGradient>
</defs>
</svg>
