<svg width="115" height="115" viewBox="0 0 115 115" fill="none" xmlns="http://www.w3.org/2000/svg">
<path d="M92.3979 18.4307C97.7186 27.0769 94.6782 38.1458 85.652 43.2289L79.3812 46.7444L83.8468 48.6921C90.3076 51.4475 94.6307 57.4808 95.0107 64.2266C95.3908 71.02 91.7803 77.3858 85.652 80.8062L47.6472 102.041C38.5735 107.077 26.982 104.227 21.6138 95.6281C16.2931 86.982 19.3335 75.9131 28.3597 70.83L34.678 67.3145L30.2124 65.3668C23.7516 62.6114 19.4286 56.5781 19.0485 49.8323C18.6685 43.0389 22.2789 36.6731 28.4072 33.2526L66.4121 12.0174C75.4857 6.98178 87.0772 9.83215 92.4454 18.4307H92.3979Z" fill="#FF0033"/>
<path d="M47.5078 71.2576L71.2609 57.0057L47.5078 42.7539V71.2576Z" fill="white"/>
</svg>
