<svg width="37" height="37" viewBox="0 0 37 37" fill="none" xmlns="http://www.w3.org/2000/svg">
<path d="M18.375 0C8.2269 0 0 8.2269 0 18.375C0 28.5221 8.2269 36.75 18.375 36.75C28.5231 36.75 36.75 28.5221 36.75 18.375C36.75 16.5385 36.4805 14.7664 35.9793 13.0932L34.0234 13.6802C34.4695 15.1675 34.7083 16.7427 34.7083 18.375C34.7083 27.3951 27.3961 34.7083 18.375 34.7083C9.3539 34.7083 2.04167 27.3951 2.04167 18.375C2.04167 9.35492 9.3539 2.04167 18.375 2.04167V0Z" fill="white"/>
<path d="M12.4174 9.5111C12.2821 9.27664 12.2454 8.99801 12.3155 8.7365C12.3855 8.47499 12.5566 8.25202 12.7911 8.11665L15.5157 6.54456C15.6798 6.45006 15.8669 6.40306 16.0562 6.40884C16.2455 6.41462 16.4295 6.47293 16.5875 6.57727C16.7456 6.68161 16.8715 6.82786 16.9512 6.99966C17.0308 7.17146 17.0612 7.36204 17.0387 7.55008L16.5784 11.3782L17.8748 10.6299C17.991 10.5619 18.1194 10.5174 18.2528 10.4992C18.3862 10.4809 18.5219 10.4893 18.652 10.5237C18.7822 10.5581 18.9042 10.6179 19.0112 10.6997C19.1181 10.7815 19.2078 10.8836 19.2752 11.0002C19.3425 11.1168 19.3861 11.2455 19.4034 11.379C19.4208 11.5125 19.4115 11.6481 19.3763 11.7781C19.341 11.908 19.2804 12.0296 19.1979 12.136C19.1154 12.2424 19.0127 12.3315 18.8956 12.398L15.8301 14.1681C15.6659 14.2627 15.4786 14.3097 15.2892 14.3039C15.0998 14.2981 14.9158 14.2397 14.7577 14.1352C14.5996 14.0308 14.4737 13.8844 14.3941 13.7124C14.3145 13.5405 14.2844 13.3497 14.307 13.1616L14.7674 9.33348L13.8119 9.88473C13.5774 10.0201 13.2988 10.0568 13.0373 9.98671C12.7758 9.91664 12.5528 9.74556 12.4174 9.5111ZM20.9516 2.11312C20.8174 2.14329 20.6906 2.20029 20.5789 2.28069C20.4673 2.36109 20.373 2.46323 20.3018 2.58098C20.2306 2.69873 20.184 2.82965 20.1647 2.96588C20.1454 3.10212 20.1538 3.24085 20.1895 3.37374C20.2251 3.50663 20.2873 3.63094 20.3722 3.7392C20.4572 3.84746 20.5631 3.93743 20.6837 4.00371C20.8043 4.06999 20.937 4.11121 21.0739 4.12489C21.2108 4.13858 21.3491 4.12444 21.4804 4.08333L23.4526 3.55556L21.361 8.76692C21.2904 8.94285 21.2703 9.13494 21.3028 9.32167C21.3352 9.50841 21.4191 9.68241 21.5449 9.8242C21.6706 9.96598 21.8334 10.0699 22.0149 10.1245C22.1965 10.179 22.3896 10.1818 22.5727 10.1328L27.0102 8.94352C27.1397 8.9088 27.2611 8.84891 27.3675 8.76728C27.4738 8.68564 27.5631 8.58386 27.6301 8.46774C27.6971 8.35161 27.7406 8.22343 27.7581 8.0905C27.7756 7.95757 27.7667 7.8225 27.732 7.693C27.6973 7.5635 27.6374 7.44211 27.5557 7.33575C27.4741 7.2294 27.3723 7.14016 27.2562 7.07314C27.1401 7.00613 27.0119 6.96263 26.879 6.94516C26.746 6.92768 26.611 6.93655 26.4815 6.97127L24.0161 7.63175L26.1078 2.42142C26.1784 2.24549 26.1985 2.0534 26.166 1.86666C26.1335 1.67993 26.0497 1.50592 25.9239 1.36414C25.7981 1.22235 25.6354 1.11838 25.4538 1.06388C25.2723 1.00938 25.0792 1.00649 24.8961 1.05554L20.9516 2.11312ZM30.1718 1.02083C30.1718 0.750091 30.2793 0.490439 30.4708 0.298995C30.6622 0.107552 30.9219 0 31.1926 0H35.7292C35.9114 -4.29772e-07 36.0903 0.0487758 36.2473 0.141265C36.4043 0.233754 36.5337 0.366584 36.6221 0.525965C36.7104 0.685346 36.7544 0.865467 36.7497 1.04763C36.7449 1.22979 36.6914 1.40735 36.5949 1.56188L32.4666 8.16667H35.7292C35.9999 8.16667 36.2596 8.27422 36.451 8.46566C36.6425 8.65711 36.75 8.91676 36.75 9.1875C36.75 9.45824 36.6425 9.71789 36.451 9.90934C36.2596 10.1008 35.9999 10.2083 35.7292 10.2083H30.625C30.4428 10.2083 30.2639 10.1596 30.1069 10.0671C29.9499 9.97458 29.8205 9.84175 29.7321 9.68237C29.6438 9.52299 29.5998 9.34287 29.6045 9.16071C29.6093 8.97854 29.6628 8.80098 29.7593 8.64646L33.8876 2.04167H31.1926C30.9219 2.04167 30.6622 1.93411 30.4708 1.74267C30.2793 1.55123 30.1718 1.29158 30.1718 1.02083ZM8.5791 23.1198C7.79 22.8697 7.1091 22.3032 7.03152 21.5447C7.02393 21.4696 7.03308 21.3938 7.05832 21.3227C7.08355 21.2516 7.12423 21.1869 7.17744 21.1334C7.23065 21.08 7.29505 21.0389 7.36602 21.0133C7.43699 20.9877 7.51276 20.9781 7.58787 20.9853C9.55808 21.17 11.4476 20.2217 12.7686 18.0657C12.8134 17.9926 12.876 17.9319 12.9504 17.8893C13.0249 17.8468 13.1089 17.8236 13.1947 17.8221C13.2805 17.8206 13.3652 17.8407 13.4412 17.8806C13.5171 17.9205 13.5818 17.9789 13.6292 18.0504C14.0395 18.668 14.0804 19.6398 13.7843 20.5259C13.6089 21.0487 13.3241 21.528 12.9488 21.932C12.5735 22.336 12.1164 22.6553 11.6079 22.8687C10.4727 23.3597 9.40291 23.3822 8.5791 23.1198ZM26.2763 18.3781C26.8336 17.7666 27.1399 16.9366 26.8275 16.2404C26.7966 16.1717 26.7509 16.1107 26.6936 16.0617C26.6363 16.0128 26.5689 15.9771 26.4962 15.9573C26.4235 15.9375 26.3473 15.934 26.2731 15.9471C26.1989 15.9603 26.1285 15.9897 26.067 16.0332C24.452 17.1796 22.341 17.3031 20.1206 16.0965C20.0453 16.0555 19.9608 16.0341 19.875 16.0344C19.7892 16.0347 19.7048 16.0566 19.6297 16.0981C19.5546 16.1397 19.4912 16.1994 19.4454 16.2719C19.3995 16.3445 19.3726 16.4274 19.3673 16.513C19.3213 17.2531 19.7715 18.1147 20.4698 18.7343C20.8832 19.0996 21.3697 19.3725 21.8969 19.5348C22.4241 19.6971 22.9799 19.7451 23.5272 19.6755C24.7552 19.5326 25.6924 19.0181 26.2752 18.3791" fill="white"/>
<path fill-rule="evenodd" clip-rule="evenodd" d="M26.9991 26.3935C24.7012 23.2443 21.2957 21.5803 18.1107 22.4337C14.9257 23.2871 12.8084 26.4313 12.393 30.3074C12.2756 31.3987 13.3352 32.1684 14.3948 31.8846L26.0527 28.7608C27.1134 28.476 27.6452 27.2817 26.9991 26.3935ZM18.6384 24.405C20.5719 23.8874 22.9412 24.7173 24.8553 26.9672L14.5367 29.7327C15.0686 26.8274 16.706 24.9246 18.6384 24.406" fill="white"/>
</svg>
