<svg width="41" height="38" viewBox="0 0 41 38" fill="none" xmlns="http://www.w3.org/2000/svg">
<path d="M28.1992 6.61658C27.793 6.61658 27.4036 6.77791 27.1164 7.06507C26.8292 7.35224 26.6679 7.74172 26.6679 8.14783C26.6679 8.55394 26.8292 8.94342 27.1164 9.23059C27.4036 9.51775 27.793 9.67908 28.1992 9.67908C28.9403 9.67908 29.5528 9.89958 29.9968 10.2916C30.4317 10.6805 30.839 11.3543 30.9554 12.5211C30.9755 12.7212 31.0348 12.9153 31.13 13.0925C31.2251 13.2696 31.3542 13.4263 31.5099 13.5536C31.6656 13.6808 31.8449 13.7762 32.0374 13.8342C32.23 13.8922 32.432 13.9117 32.6321 13.8916C32.8322 13.8714 33.0264 13.8121 33.2035 13.717C33.3807 13.6218 33.5374 13.4927 33.6646 13.337C33.7919 13.1813 33.8872 13.0021 33.9452 12.8095C34.0032 12.617 34.0227 12.4149 34.0026 12.2148C33.825 10.4294 33.139 8.99308 32.0334 8.00695C30.9707 7.08614 29.605 6.59091 28.1992 6.61658ZM17.5539 2.20045C16.4603 1.28912 15.1758 0.635388 13.7954 0.287634C12.4149 -0.0601205 10.974 -0.0929909 9.57916 0.191455C7.07403 0.681455 4.86291 2.0657 3.39597 3.65208L3.38985 3.66127C1.78816 5.41914 0.149722 7.70377 0.00884696 11.0327V11.0388C-0.052403 12.6742 0.180347 15.0599 1.46966 16.8851L1.48803 16.9066C2.85391 18.7594 3.61647 19.8435 3.99928 20.8909C4.43722 22.0914 4.43722 23.3041 4.43722 25.108V25.255C4.45253 27.0006 4.8231 29.4108 5.71428 31.6035C6.59628 33.7656 8.11222 36.0135 10.6112 36.9231L10.6725 36.9445L10.7398 36.9629C12.1884 37.3488 13.5757 37.2201 14.6292 36.2371C15.548 35.3796 15.9155 34.1117 16.1237 33.0123C16.3136 31.9986 16.4085 30.8195 16.5035 29.6741L16.5372 29.2423C16.6474 27.9193 16.773 26.6086 17.0302 25.3775V25.3683C17.7254 21.9903 18.7207 21.4605 19.1035 21.3411C20.2367 21.0501 20.9165 21.2033 21.3575 21.4544C21.8353 21.727 22.2763 22.2506 22.6591 23.1143C23.4492 24.9058 23.682 27.4446 23.8964 29.7966C24.0801 32.1333 24.5701 34.2832 25.5317 35.6766C26.037 36.4086 26.7628 37.0578 27.7551 37.2691C28.7565 37.4866 29.7212 37.1895 30.5573 36.6566C33.6014 34.712 35.347 30.697 35.8064 25.4632C36.0208 22.9795 36.2719 21.8709 36.6425 20.9766C36.8323 20.5173 37.0712 20.0763 37.4081 19.4975L37.7327 18.9462C38.0104 18.4868 38.3268 17.9417 38.6821 17.3108L38.6882 17.3078C39.3497 16.1195 40.44 13.9451 40.5655 11.3971C40.6972 8.73889 39.7693 5.8142 36.6608 3.29683C33.7025 0.895829 30.9278 0.010767 28.4319 0.142454C25.9605 0.27108 23.9852 1.38583 22.5733 2.57714L22.5243 2.62002L22.4815 2.66289C21.1401 4.00427 20.5735 4.17883 20.2673 4.16352C19.8937 4.1482 19.2015 3.84808 17.6825 2.31377L17.6213 2.25252L17.5539 2.20045ZM3.06828 11.1613C3.16629 8.88589 4.24122 7.27195 5.64997 5.72845C6.72185 4.57083 8.36335 3.55102 10.1641 3.19883C11.108 3.0017 12.0842 3.01935 13.0204 3.25048C13.9565 3.48161 14.8288 3.92029 15.5725 4.53408C17.0118 5.98264 18.4573 7.15252 20.1356 7.22602C21.8812 7.29952 23.2961 6.17252 24.5977 4.87708C25.6603 3.98895 27.0048 3.28458 28.5912 3.19883C30.1775 3.11614 32.2294 3.64595 34.7315 5.67333C37.0559 7.55677 37.5918 9.53208 37.5061 11.2471C37.4173 13.0631 36.618 14.7261 36.0147 15.8102C35.6098 16.5321 35.1922 17.2468 34.7621 17.954C34.4068 18.5665 34.0853 19.1483 33.8127 19.8037C33.2615 21.139 32.9797 22.6273 32.7531 25.1937C32.3274 30.0539 30.7655 32.8898 28.9097 34.075C28.7832 34.1593 28.6449 34.2243 28.4993 34.2679C28.4288 34.2832 28.4013 34.2771 28.3982 34.2771C28.3952 34.2771 28.3676 34.271 28.3125 34.2311C28.2105 34.1478 28.1226 34.0485 28.0522 33.9371C27.5622 33.2328 27.1212 31.7566 26.9497 29.5486V29.5302L26.9282 29.3005C26.7322 27.1261 26.4627 24.1494 25.4613 21.8801C24.9315 20.6765 24.1291 19.5066 22.8704 18.79C21.578 18.055 20.0345 17.9325 18.3073 18.3858L18.2828 18.3919L18.2613 18.398C16.2095 18.9952 14.8068 20.9828 14.0351 24.7527C13.7319 26.189 13.5941 27.6682 13.4838 28.9881L13.4532 29.4169C13.3904 30.4325 13.2769 31.4444 13.1133 32.4488C12.9295 33.441 12.6937 33.8514 12.5345 33.9984C12.5008 34.029 12.3323 34.2036 11.5943 34.0229C10.3142 33.5268 9.2821 32.2436 8.55322 30.449C7.90039 28.7853 7.54384 27.0202 7.49972 25.2335V24.915C7.49972 23.2858 7.50585 21.5677 6.87497 19.8435C6.31453 18.3 5.24878 16.8453 3.96253 15.1028C3.25203 14.0921 3.01316 12.5303 3.06828 11.1613Z" fill="url(#paint0_linear_5_18)"/>
<defs>
<linearGradient id="paint0_linear_5_18" x1="20.2888" y1="0" x2="20.2888" y2="37.341" gradientUnits="userSpaceOnUse">
<stop stop-color="#104F78"/>
<stop offset="1" stop-color="#A9DFFF"/>
</linearGradient>
</defs>
</svg>
