<svg width="27" height="24" viewBox="0 0 27 24" fill="none" xmlns="http://www.w3.org/2000/svg">
<path d="M10.4569 18.003C10.4569 19.4404 9.95378 20.6442 8.94762 21.6144C7.94146 22.5847 6.68376 23.0698 5.17453 23.0698C3.73716 23.0698 2.5154 22.5128 1.50924 21.3988C0.503079 20.2849 0 18.8834 0 17.1945C0 15.9728 0.269507 14.6252 0.80852 13.1519C1.38347 11.6786 2.12012 10.1874 3.01847 8.67811C3.95276 7.16888 4.99486 5.67761 6.14475 4.2043C7.33058 2.69507 8.51641 1.29363 9.70224 0L11.1576 1.18583C9.54053 3.09034 8.193 5.01282 7.11498 6.95327C6.03695 8.89372 5.39013 10.7982 5.17453 12.6668C6.6119 12.7746 7.85163 13.3136 8.89372 14.2839C9.93581 15.2541 10.4569 16.4938 10.4569 18.003ZM25.9265 18.003C25.9265 19.4404 25.4235 20.6442 24.4173 21.6144C23.4111 22.5847 22.1534 23.0698 20.6442 23.0698C19.2068 23.0698 17.9851 22.5128 16.9789 21.3988C15.9728 20.2849 15.4697 18.8834 15.4697 17.1945C15.4697 15.9728 15.7392 14.6252 16.2782 13.1519C16.8531 11.6786 17.5898 10.1874 18.4882 8.67811C19.4224 7.16888 20.4645 5.67761 21.6144 4.2043C22.8003 2.69507 23.9861 1.29363 25.1719 0L26.5734 1.18583C24.9563 3.09034 23.6088 5.01282 22.5308 6.95327C21.4887 8.89372 20.8598 10.7982 20.6442 12.6668C22.0816 12.7746 23.3213 13.3136 24.3634 14.2839C25.4055 15.2541 25.9265 16.4938 25.9265 18.003Z" fill="#1A6286"/>
</svg>
