<svg width="46" height="42" viewBox="0 0 46 42" fill="none" xmlns="http://www.w3.org/2000/svg">
<path d="M31.3532 7.35663C30.9017 7.35663 30.4686 7.53601 30.1493 7.85529C29.83 8.17457 29.6507 8.60762 29.6507 9.05915C29.6507 9.51069 29.83 9.94373 30.1493 10.263C30.4686 10.5823 30.9017 10.7617 31.3532 10.7617C32.1772 10.7617 32.8582 11.0068 33.352 11.4427C33.8355 11.8751 34.2883 12.6242 34.4177 13.9215C34.4401 14.144 34.506 14.3599 34.6118 14.5569C34.7176 14.7538 34.8612 14.928 35.0343 15.0695C35.2074 15.211 35.4067 15.317 35.6208 15.3815C35.8348 15.446 36.0595 15.4677 36.282 15.4453C36.5044 15.4229 36.7203 15.357 36.9173 15.2512C37.1143 15.1454 37.2885 15.0019 37.43 14.8288C37.5715 14.6556 37.6775 14.4564 37.7419 14.2423C37.8064 14.0282 37.8281 13.8035 37.8057 13.581C37.6082 11.5959 36.8455 9.99894 35.6163 8.90252C34.4348 7.87871 32.9163 7.32809 31.3532 7.35663ZM19.5173 2.44657C18.3014 1.43331 16.8732 0.706455 15.3384 0.319805C13.8035 -0.0668449 12.2014 -0.103392 10.6506 0.212869C7.86525 0.757674 5.40682 2.29675 3.77581 4.06056L3.769 4.07077C1.98816 6.02527 0.166468 8.56542 0.00983648 12.2667V12.2735C-0.0582642 14.0918 0.200518 16.7443 1.63404 18.7737L1.65447 18.7976C3.17312 20.8576 4.02097 22.063 4.4466 23.2275C4.93352 24.5623 4.93352 25.9107 4.93352 27.9162V28.0797C4.95054 30.0206 5.36255 32.7003 6.35342 35.1383C7.33407 37.5423 9.01956 40.0416 11.7981 41.0529L11.8662 41.0767L11.9411 41.0971C13.5517 41.5262 15.0941 41.3832 16.2655 40.2901C17.287 39.3367 17.6956 37.9271 17.9271 36.7046C18.1383 35.5776 18.2438 34.2666 18.3494 32.9932L18.3868 32.513C18.5094 31.0421 18.649 29.5847 18.935 28.2159V28.2057C19.708 24.4499 20.8146 23.8608 21.2402 23.7281C22.5001 23.4046 23.256 23.5748 23.7463 23.854C24.2775 24.1571 24.7679 24.7393 25.1935 25.6996C26.072 27.6915 26.3308 30.5143 26.5691 33.1294C26.7734 35.7274 27.3182 38.1177 28.3874 39.667C28.9492 40.4808 29.7562 41.2027 30.8595 41.4376C31.9729 41.6794 33.0455 41.3491 33.9751 40.7566C37.3597 38.5944 39.3006 34.1304 39.8113 28.3112C40.0497 25.5497 40.3289 24.3171 40.7409 23.3229C40.952 22.8121 41.2176 22.3218 41.5921 21.6782L41.9531 21.0653C42.2618 20.5546 42.6137 19.9485 43.0086 19.247L43.0154 19.2436C43.7509 17.9225 44.9631 15.5049 45.1027 12.6719C45.2491 9.71633 44.2174 6.46452 40.7613 3.66558C37.472 0.996027 34.3871 0.0119712 31.612 0.158388C28.8641 0.301399 26.6679 1.54083 25.0981 2.86539L25.0437 2.91306L24.996 2.96073C23.5046 4.45214 22.8747 4.64623 22.5342 4.6292C22.1187 4.61217 21.3492 4.27848 19.6603 2.57256L19.5922 2.50446L19.5173 2.44657ZM3.41147 12.4097C3.52043 9.87977 4.7156 8.08531 6.28191 6.36917C7.47368 5.08207 9.29878 3.94819 11.3009 3.55661C12.3504 3.33743 13.4358 3.35706 14.4767 3.61404C15.5176 3.87102 16.4873 4.35877 17.3142 5.04121C18.9146 6.65179 20.5218 7.95252 22.3877 8.03424C24.3286 8.11596 25.9017 6.8629 27.3489 5.42257C28.5304 4.43511 30.0252 3.65195 31.789 3.55661C33.5529 3.46468 35.8342 4.05375 38.6161 6.30788C41.2006 8.40198 41.7964 10.5982 41.7011 12.505C41.6024 14.5242 40.7136 16.3732 40.0429 17.5786C39.5927 18.3812 39.1284 19.1758 38.6502 19.9621C38.2552 20.6431 37.8977 21.29 37.5946 22.0187C36.9817 23.5033 36.6685 25.1582 36.4165 28.0116C35.9432 33.4154 34.2066 36.5684 32.1432 37.8862C32.0026 37.9799 31.8488 38.0522 31.6869 38.1007C31.6086 38.1177 31.5779 38.1109 31.5745 38.1109C31.5711 38.1109 31.5405 38.1041 31.4792 38.0598C31.3658 37.9672 31.268 37.8568 31.1898 37.733C30.6449 36.9498 30.1546 35.3086 29.9639 32.8535V32.8331L29.9401 32.5777C29.7222 30.1602 29.4225 26.8505 28.3091 24.3273C27.72 22.9892 26.8279 21.6884 25.4284 20.8917C23.9915 20.0744 22.2754 19.9382 20.3549 20.4422L20.3277 20.449L20.3039 20.4558C18.0225 21.1198 16.463 23.3297 15.6049 27.5213C15.2678 29.1182 15.1146 30.7629 14.992 32.2304L14.9579 32.7071C14.888 33.8364 14.7619 34.9614 14.58 36.0781C14.3757 37.1813 14.1135 37.6376 13.9364 37.8011C13.899 37.8351 13.7117 38.0292 12.8911 37.8283C11.4678 37.2767 10.3203 35.85 9.50989 33.8546C8.78404 32.0049 8.38761 30.0423 8.33856 28.0558V27.7017C8.33856 25.8902 8.34537 23.98 7.64393 22.063C7.02081 20.3468 5.83585 18.7295 4.40574 16.792C3.61577 15.6683 3.35018 13.9318 3.41147 12.4097Z" fill="#4887AD"/>
</svg>
