<svg width="54" height="54" viewBox="0 0 54 54" fill="none" xmlns="http://www.w3.org/2000/svg">
<path d="M44.4223 9.94533C38.3324 9.94533 32.8659 8.8414 27.933 3.8986C27.5601 3.52612 27.0545 3.31689 26.5274 3.31689C26.0003 3.31689 25.4948 3.52612 25.1218 3.8986C20.1757 8.8414 14.7058 9.94533 8.6226 9.94533C8.09507 9.94533 7.58915 10.1549 7.21613 10.5279C6.84311 10.9009 6.63354 11.4069 6.63354 11.9344V23.8753C6.63354 36.6782 13.1643 45.3803 25.8942 49.627C26.303 49.7635 26.7451 49.7635 27.154 49.627C39.8872 45.3837 46.4146 36.6782 46.4146 23.8753V11.9344C46.4146 10.8371 45.5196 9.94533 44.4223 9.94533ZM43.0962 23.872C43.0962 35.1301 37.6727 42.483 26.5208 46.3351C15.3688 42.483 9.94532 35.1301 9.94532 23.872V13.2438C15.1799 13.1146 21.0575 12.0869 26.5241 7.13413C31.9807 12.0836 37.8617 13.1112 43.0962 13.2438V23.872ZM24.8599 29.1497L33.6317 20.3779C33.7858 20.2238 33.9687 20.1016 34.1701 20.0182C34.3714 19.9348 34.5872 19.8918 34.8052 19.8918C35.0231 19.8918 35.2389 19.9348 35.4403 20.0182C35.6417 20.1016 35.8246 20.2238 35.9787 20.3779C36.1328 20.532 36.2551 20.715 36.3385 20.9163C36.4219 21.1177 36.4648 21.3335 36.4648 21.5515C36.4648 21.7694 36.4219 21.9852 36.3385 22.1866C36.2551 22.3879 36.1328 22.5709 35.9787 22.725L26.0335 32.6703C25.8795 32.8246 25.6966 32.9471 25.4952 33.0307C25.2938 33.1142 25.0779 33.1572 24.8599 33.1572C24.6419 33.1572 24.426 33.1142 24.2246 33.0307C24.0233 32.9471 23.8403 32.8246 23.6864 32.6703L18.7137 27.6976C18.4025 27.3864 18.2276 26.9643 18.2276 26.5241C18.2276 26.0839 18.4025 25.6618 18.7137 25.3506C19.025 25.0393 19.4471 24.8645 19.8873 24.8645C20.3274 24.8645 20.7496 25.0393 21.0608 25.3506L24.8599 29.1497Z" fill="white"/>
</svg>
